<mxfile host="65bd71144e">
    <diagram id="COUUeBVRigfFWjyABNwq" name="Page-1">
        <mxGraphModel dx="816" dy="433" grid="1" gridSize="10" guides="1" tooltips="1" connect="1" arrows="1" fold="1" page="1" pageScale="1" pageWidth="850" pageHeight="1100" math="0" shadow="0">
            <root>
                <mxCell id="0"/>
                <mxCell id="1" parent="0"/>
                <mxCell id="14" style="edgeStyle=none;html=1;" parent="1" source="3" target="13" edge="1">
                    <mxGeometry relative="1" as="geometry"/>
                </mxCell>
                <mxCell id="3" value="Fin de rando" style="points=[[0.145,0.145,0],[0.5,0,0],[0.855,0.145,0],[1,0.5,0],[0.855,0.855,0],[0.5,1,0],[0.145,0.855,0],[0,0.5,0]];shape=mxgraph.bpmn.event;html=1;verticalLabelPosition=bottom;labelBackgroundColor=#ffffff;verticalAlign=top;align=center;perimeter=ellipsePerimeter;outlineConnect=0;aspect=fixed;outline=standard;symbol=conditional;" parent="1" vertex="1">
                    <mxGeometry x="10" y="150" width="50" height="50" as="geometry"/>
                </mxCell>
                <mxCell id="39" style="edgeStyle=none;html=1;" parent="1" source="13" target="41" edge="1">
                    <mxGeometry relative="1" as="geometry">
                        <mxPoint x="230" y="175" as="targetPoint"/>
                    </mxGeometry>
                </mxCell>
                <mxCell id="13" value="Cliquer sur terminer la rando" style="points=[[0.25,0,0],[0.5,0,0],[0.75,0,0],[1,0.25,0],[1,0.5,0],[1,0.75,0],[0.75,1,0],[0.5,1,0],[0.25,1,0],[0,0.75,0],[0,0.5,0],[0,0.25,0]];shape=mxgraph.bpmn.task;whiteSpace=wrap;rectStyle=rounded;size=10;html=1;taskMarker=user;" parent="1" vertex="1">
                    <mxGeometry x="110" y="135" width="80" height="80" as="geometry"/>
                </mxCell>
                <mxCell id="43" style="edgeStyle=none;html=1;" parent="1" source="16" target="25" edge="1">
                    <mxGeometry relative="1" as="geometry"/>
                </mxCell>
                <mxCell id="16" value="Proposer de laisser un avis" style="points=[[0.25,0,0],[0.5,0,0],[0.75,0,0],[1,0.25,0],[1,0.5,0],[1,0.75,0],[0.75,1,0],[0.5,1,0],[0.25,1,0],[0,0.75,0],[0,0.5,0],[0,0.25,0]];shape=mxgraph.bpmn.task;whiteSpace=wrap;rectStyle=rounded;size=10;html=1;taskMarker=abstract;" parent="1" vertex="1">
                    <mxGeometry x="440" y="137.5" width="90" height="75" as="geometry"/>
                </mxCell>
                <mxCell id="28" value="OUI" style="edgeStyle=none;html=1;" parent="1" source="25" target="57" edge="1">
                    <mxGeometry x="-0.0909" y="14" relative="1" as="geometry">
                        <mxPoint x="740" y="173.75" as="targetPoint"/>
                        <Array as="points"/>
                        <mxPoint x="-1" as="offset"/>
                    </mxGeometry>
                </mxCell>
                <mxCell id="68" value="NON" style="edgeStyle=none;html=1;" parent="1" source="25" target="58" edge="1">
                    <mxGeometry relative="1" as="geometry"/>
                </mxCell>
                <mxCell id="25" value="" style="points=[[0.25,0.25,0],[0.5,0,0],[0.75,0.25,0],[1,0.5,0],[0.75,0.75,0],[0.5,1,0],[0.25,0.75,0],[0,0.5,0]];shape=mxgraph.bpmn.gateway2;html=1;verticalLabelPosition=bottom;labelBackgroundColor=#ffffff;verticalAlign=top;align=center;perimeter=rhombusPerimeter;outlineConnect=0;outline=none;symbol=none;gwType=exclusive;" parent="1" vertex="1">
                    <mxGeometry x="580" y="148.75" width="50" height="50" as="geometry"/>
                </mxCell>
                <mxCell id="42" style="edgeStyle=none;html=1;" parent="1" source="41" target="16" edge="1">
                    <mxGeometry relative="1" as="geometry"/>
                </mxCell>
                <mxCell id="41" value="Sauvegarder la randonnée en local" style="points=[[0.25,0,0],[0.5,0,0],[0.75,0,0],[1,0.25,0],[1,0.5,0],[1,0.75,0],[0.75,1,0],[0.5,1,0],[0.25,1,0],[0,0.75,0],[0,0.5,0],[0,0.25,0]];shape=mxgraph.bpmn.task;whiteSpace=wrap;rectStyle=rounded;size=10;html=1;taskMarker=service;" parent="1" vertex="1">
                    <mxGeometry x="260" y="135" width="110" height="80" as="geometry"/>
                </mxCell>
                <mxCell id="65" style="edgeStyle=none;html=1;" parent="1" source="57" target="64" edge="1">
                    <mxGeometry relative="1" as="geometry"/>
                </mxCell>
                <mxCell id="57" value="Rédiger avis" style="points=[[0.25,0,0],[0.5,0,0],[0.75,0,0],[1,0.25,0],[1,0.5,0],[1,0.75,0],[0.75,1,0],[0.5,1,0],[0.25,1,0],[0,0.75,0],[0,0.5,0],[0,0.25,0]];shape=mxgraph.bpmn.task;whiteSpace=wrap;rectStyle=rounded;size=10;html=1;taskMarker=user;" parent="1" vertex="1">
                    <mxGeometry x="690" y="135" width="80" height="77.5" as="geometry"/>
                </mxCell>
                <mxCell id="58" value="" style="points=[[0.145,0.145,0],[0.5,0,0],[0.855,0.145,0],[1,0.5,0],[0.855,0.855,0],[0.5,1,0],[0.145,0.855,0],[0,0.5,0]];shape=mxgraph.bpmn.event;html=1;verticalLabelPosition=bottom;labelBackgroundColor=#ffffff;verticalAlign=top;align=center;perimeter=ellipsePerimeter;outlineConnect=0;aspect=fixed;outline=end;symbol=terminate;" parent="1" vertex="1">
                    <mxGeometry x="580" y="270" width="50" height="50" as="geometry"/>
                </mxCell>
                <mxCell id="62" style="edgeStyle=none;html=1;" parent="1" source="60" target="61" edge="1">
                    <mxGeometry relative="1" as="geometry"/>
                </mxCell>
                <mxCell id="60" value="Randonnée &lt;br&gt;ouverte" style="points=[[0.145,0.145,0],[0.5,0,0],[0.855,0.145,0],[1,0.5,0],[0.855,0.855,0],[0.5,1,0],[0.145,0.855,0],[0,0.5,0]];shape=mxgraph.bpmn.event;html=1;verticalLabelPosition=bottom;labelBackgroundColor=#ffffff;verticalAlign=top;align=center;perimeter=ellipsePerimeter;outlineConnect=0;aspect=fixed;outline=throwing;symbol=general;" parent="1" vertex="1">
                    <mxGeometry x="10" y="20" width="50" height="50" as="geometry"/>
                </mxCell>
                <mxCell id="63" style="edgeStyle=none;html=1;" parent="1" source="61" target="57" edge="1">
                    <mxGeometry relative="1" as="geometry"/>
                </mxCell>
                <mxCell id="61" value="Cliquer sur rédiger avis" style="points=[[0.25,0,0],[0.5,0,0],[0.75,0,0],[1,0.25,0],[1,0.5,0],[1,0.75,0],[0.75,1,0],[0.5,1,0],[0.25,1,0],[0,0.75,0],[0,0.5,0],[0,0.25,0]];shape=mxgraph.bpmn.task;whiteSpace=wrap;rectStyle=rounded;size=10;html=1;taskMarker=user;" parent="1" vertex="1">
                    <mxGeometry x="560" y="10" width="90" height="70" as="geometry"/>
                </mxCell>
                <mxCell id="67" style="edgeStyle=none;html=1;" parent="1" source="64" target="66" edge="1">
                    <mxGeometry relative="1" as="geometry"/>
                </mxCell>
                <mxCell id="64" value="Publier l'avis" style="points=[[0.25,0,0],[0.5,0,0],[0.75,0,0],[1,0.25,0],[1,0.5,0],[1,0.75,0],[0.75,1,0],[0.5,1,0],[0.25,1,0],[0,0.75,0],[0,0.5,0],[0,0.25,0]];shape=mxgraph.bpmn.task;whiteSpace=wrap;rectStyle=rounded;size=10;html=1;taskMarker=user;" parent="1" vertex="1">
                    <mxGeometry x="810" y="135" width="80" height="75" as="geometry"/>
                </mxCell>
                <mxCell id="66" value="Synchro montante" style="points=[[0.25,0,0],[0.5,0,0],[0.75,0,0],[1,0.25,0],[1,0.5,0],[1,0.75,0],[0.75,1,0],[0.5,1,0],[0.25,1,0],[0,0.75,0],[0,0.5,0],[0,0.25,0]];shape=mxgraph.bpmn.task;whiteSpace=wrap;rectStyle=rounded;size=10;html=1;bpmnShapeType=call;isLoopSub=1;" parent="1" vertex="1">
                    <mxGeometry x="940" y="132.5" width="120" height="80" as="geometry"/>
                </mxCell>
            </root>
        </mxGraphModel>
    </diagram>
</mxfile>